<svg width="40" height="40" viewBox="0 0 40 40" fill="none" xmlns="http://www.w3.org/2000/svg">
<rect width="40" height="40" rx="20" fill="white"/>
<g clip-path="url(#clip0_609_13)">
<path d="M13.3169 29.2101V19.6766L10.3603 16.9717L7.70898 15.4707V27.5277C7.70898 28.4586 8.4632 29.2101 9.39139 29.2101H13.3169V29.2101Z" fill="#4285F4"/>
<path d="M26.7754 29.21H30.7009C31.6319 29.21 32.3833 28.4557 32.3833 27.5276V15.4707L29.3803 17.1899L26.7754 19.6765V29.21V29.21Z" fill="#34A853"/>
<path d="M13.3174 19.6764L12.915 15.9514L13.3174 12.3862L20.0468 17.4334L26.7762 12.3862L27.2263 15.759L26.7762 19.6764L20.0468 24.7236L13.3174 19.6764Z" fill="#EA4335"/>
<path d="M26.7754 12.3863V19.6765L32.3833 15.4707V13.2275C32.3833 11.147 30.0084 9.96097 28.3457 11.2087L26.7754 12.3863Z" fill="#FBBC04"/>
<path d="M7.70898 15.4702L10.2882 17.4047L13.3169 19.6761V12.3859L11.7466 11.2082C10.081 9.96043 7.70898 11.1466 7.70898 13.2269V15.4701V15.4702Z" fill="#C5221F"/>
</g>
<defs>
<clipPath id="clip0_609_13">
<rect x="7.70898" y="10.6992" width="24.6747" height="18.6024" fill="white"/>
</clipPath>
</defs>
</svg>
