<svg width="50" height="50" viewBox="0 0 50 50" fill="none" xmlns="http://www.w3.org/2000/svg">
<rect width="50" height="50" rx="8" fill="#F7DF1E"/>
<path d="M33.712 31.768V43H30.976V36.264L28.464 43H26.256L23.728 36.248V43H20.992V31.768H24.224L27.376 39.544L30.496 31.768H33.712ZM41.4075 43L39.0715 38.76H38.4155V43H35.6795V31.768H40.2715C41.1568 31.768 41.9088 31.9227 42.5275 32.232C43.1568 32.5413 43.6262 32.968 43.9355 33.512C44.2448 34.0453 44.3995 34.6427 44.3995 35.304C44.3995 36.0507 44.1862 36.7173 43.7595 37.304C43.3435 37.8907 42.7248 38.3067 41.9035 38.552L44.4955 43H41.4075ZM38.4155 36.824H40.1115C40.6128 36.824 40.9862 36.7013 41.2315 36.456C41.4875 36.2107 41.6155 35.864 41.6155 35.416C41.6155 34.9893 41.4875 34.6533 41.2315 34.408C40.9862 34.1627 40.6128 34.04 40.1115 34.04H38.4155V36.824Z" fill="black"/>
</svg>
