<svg width="20" height="20" viewBox="0 0 20 20" fill="none" xmlns="http://www.w3.org/2000/svg">
<path d="M15.5 2C16.163 2 16.7989 2.26339 17.2678 2.73223C17.7366 3.20107 18 3.83696 18 4.5V13.5C18 14.163 17.7366 14.7989 17.2678 15.2678C16.7989 15.7366 16.163 16 15.5 16H6.5C5.83696 16 5.20107 15.7366 4.73223 15.2678C4.26339 14.7989 4 14.163 4 13.5V4.5C4 3.83696 4.26339 3.20107 4.73223 2.73223C5.20107 2.26339 5.83696 2 6.5 2H15.5ZM10.5 6.5V8.5H8.5C8.36739 8.5 8.24021 8.55268 8.14645 8.64645C8.05268 8.74021 8 8.86739 8 9C8 9.13261 8.05268 9.25979 8.14645 9.35355C8.24021 9.44732 8.36739 9.5 8.5 9.5H10.5V11.5C10.5 11.6326 10.5527 11.7598 10.6464 11.8536C10.7402 11.9473 10.8674 12 11 12C11.1326 12 11.2598 11.9473 11.3536 11.8536C11.4473 11.7598 11.5 11.6326 11.5 11.5V9.5H13.5C13.6326 9.5 13.7598 9.44732 13.8536 9.35355C13.9473 9.25979 14 9.13261 14 9C14 8.86739 13.9473 8.74021 13.8536 8.64645C13.7598 8.55268 13.6326 8.5 13.5 8.5H11.5V6.5C11.5 6.36739 11.4473 6.24021 11.3536 6.14645C11.2598 6.05268 11.1326 6 11 6C10.8674 6 10.7402 6.05268 10.6464 6.14645C10.5527 6.24021 10.5 6.36739 10.5 6.5ZM12.5 18C13.4163 18.0013 14.2963 17.6421 14.95 17H5.5C4.83696 17 4.20107 16.7366 3.73223 16.2678C3.26339 15.7989 3 15.163 3 14.5V5.05C2.381 5.682 2 6.546 2 7.5V14.5C2 15.4283 2.36875 16.3185 3.02513 16.9749C3.6815 17.6313 4.57174 18 5.5 18H12.5Z" fill="black"/>
</svg>
