<svg width="20" height="20" viewBox="0 0 20 20" fill="none" xmlns="http://www.w3.org/2000/svg">
<path d="M1.25 5H3.8125C4.125 3.5625 5.375 2.5 6.875 2.5C8.375 2.5 9.625 3.5625 9.9375 5H18.75V6.25H9.9375C9.625 7.6875 8.375 8.75 6.875 8.75C5.375 8.75 4.125 7.6875 3.8125 6.25H1.25V5ZM5 5C6.0625 5 5 7.0625 5 6C5 4.9375 6.0625 5 5 5C3.9375 5 5 4.9375 5 6C5 7.0625 3.9375 5 5 5ZM18.75 15H16.1875C15.875 16.4375 14.625 17.5 13.125 17.5C11.625 17.5 10.375 16.4375 10.0625 15H1.25V13.75H10.0625C10.375 12.3125 11.625 11.25 13.125 11.25C14.625 11.25 15.875 12.3125 16.1875 13.75H18.75V15ZM15.5 15.5C14.4375 15.5 15 13.3125 15 14.375C15 15.4375 13.29 14.375 14.3525 14.375C15.415 14.375 15 15.4375 15 14.375C15 13.3125 16.5625 15.5 15.5 15.5Z" fill="black"/>
</svg>
